<!--
  Font Awesome Free SVG Icons - 离线版本
  基于 Font Awesome 6.4.0 SVG 路径
  使用方式: 
    1. 直接引用: <svg><use href="icon/solid.svg#search"/></svg>
    2. 或在 HTML 中引入: <link rel="import" href="icon/icons.html">
-->

<!-- 常用图标定义 -->
<svg style="display: none;">
    <!-- 搜索相关 -->
    <symbol id="fa-search" viewBox="0 0 512 512">
        <path d="M416 208c0 45.9-14.9 88.3-40 122.7L486.6 441.4 510.7 465.5c2.8 2.8 6.6 4.2 10.6 4.2s7.8-1.4 10.6-4.2l25.4-25.4c2.8-2.8 4.2-6.6 4.2-10.6s-1.4-7.8-4.2-10.6L465.5 338.7 486.6 318c34.4-25.1 76.8-40 122.7-40c97.2 0 176 78.8 176 176s-78.8 176-176 176-176-78.8-176-176c0-44.1 16.2-84.6 43.2-116.7l-25.4-25.4c-5.9-5.9-15.3-5.9-21.2 0s-5.9 15.3 0 21.2l37.2 37.2C290.7 360.9 246.5 384 199.4 384C89.4 384 0 294.6 0 184.6S89.4-14.8 199.4-14.8c53.2 0 103.6 20.7 141.2 58.1l37.2 37.2c5.9 5.9 5.9 15.3 0 21.2-5.9 5.9-15.3 5.9-21.2 0L325.8 61.9C288.7 24.2 246.5 0 199.4 0C89.4 0 0 89.4 0 199.4s89.4 199.4 199.4 199.4c44.1 0 84.6-16.2 116.7-43.2l37.2 37.2c5.9 5.9 15.3 5.9 21.2 0s5.9-15.3 0-21.2l-37.2-37.2C418.4 341.1 416 299.7 416 256z"/>
    </symbol>

    <!-- 用户相关 -->
    <symbol id="fa-user" viewBox="0 0 448 512">
        <path d="M224 256c70.7 0 128-57.3 128-128S294.7 0 224 0 96 57.3 96 128s57.3 128 128 128zm89.6 32h-16.7c-22.2 10.2-46.9 16-72.9 16s-50.6-5.8-72.9-16h-16.7C60.2 288 0 348.2 0 422.4V464c0 26.5 21.5 48 48 48h352c26.5 0 48-21.5 48-48v-41.6c0-74.2-60.2-134.4-134.4-134.4z"/>
    </symbol>

    <!-- 首页/仪表盘 -->
    <symbol id="fa-home" viewBox="0 0 576 512">
        <path d="M575.8 255.5c0 18-15 32.9-32.9 32.9H9.1c-18 0-32.9-15-32.9-32.9V7.1C.5 6.5 12.5-5 23.5 1.7c1.3.8 2.7 1.2 4.2 1.2h8.6c7.1 0 13.1 5.8 13.1 13.1 0 5.4-3.2 10.1-8 12.2l-9.8 4.4c-14.3 6.4-23.2 20.9-21.8 37.1 1.4 16.2 14.6 29 31.3 29h46.9c16.6 0 30.6-12.6 32.2-28.9l14.7-66.2c2.2-10 11-17.3 21.1-17.3h25.3c10.1 0 18.9 7.3 21.1 17.3l14.7 66.2c1.6 16.4 15.6 28.9 32.2 28.9H497c16.6 0 30.6-12.6 32.2-28.9 1.4-16.2 14.6-29 31.3-29h46.9c16.7 0 29.9 12.8 31.3 29 1.4 16.2-7.5 30.7-21.8 37.1l-9.8 4.4c-4.7 2.1-8 6.8-8 12.2z"/>
    </symbol>

    <!-- 图表相关 -->
    <symbol id="fa-chart-bar" viewBox="0 0 512 512">
        <path d="M332.7 319.4l-128-53.3c-10.1-4.2-21.5-4.2-31.7 0L75 319.4C54.9 328.4 43.6 345.5 48 362.8s18.9 23.1 35.2 23.1H192v32H64c-17.7 0-32 14.3-32 32s14.3 32 32 32H448c17.7 0 32-14.3 32-32s-14.3-32-32-32H320v-64h97.2c16.4 0 30.7-10.8 35.2-23.1s-6.9-34.4-25.1-43.5L332.7 319.4zM480 96H32c-17.7 0-32 14.3-32 32s14.3 32 32 32H480c17.7 0 32-14.3 32-32s-14.3-32-32-32zm-64 96H96c-17.7 0-32 14.3-32 32s14.3 32 32 32H416c17.7 0 32-14.3 32-32s-14.3-32-32-32z"/>
    </symbol>

    <symbol id="fa-chart-pie" viewBox="0 0 512 512">
        <path d="M500 224h-30.1C455.7 130.3 365.7 40.3 256 40.3c-109.8 0-199.7 89.9-213.9 203.7H12c-6.6 0-12 5.4-12 12v50c0 6.6 5.4 12 12 12h95.1c-2.3 21.8-6.5 42.6-12.4 62.1H12c-6.6 0-12 5.4-12 12v50c0 6.6 5.4 12 12 12h82.7c6 19.5 10.1 40.2 12.4 62.1H12c-6.6 0-12 5.4-12 12v50c0 6.6 5.4 12 12 12h95.1c2.3 21.8 6.5 42.6 12.4 62.1H12c-6.6 0-12 5.4-12 12v50c0 6.6 5.4 12 12 12h95.1C90.3 497.7 180.3 512 290 512c109.8 0 199.7-89.9 213.9-203.7h30.1c6.6 0 12-5.4 12-12v-50c0-6.6-5.4-12-12-12h-95.1c-2.3-21.8-6.5-42.6-12.4-62.1h78.7c6.6 0 12-5.4 12-12v-50c0-6.6-5.4-12-12-12h-78.7c-6-19.5-10.1-40.2-12.4-62.1h95.1c6.6 0 12-5.4 12-12v-50c0-6.6-5.4-12-12-12zM290 472c-57.3 0-104-46.7-104-104s46.7-104 104-104 104 46.7 104 104-46.7 104-104 104z"/>
    </symbol>

    <symbol id="fa-chart-line" viewBox="0 0 512 512">
        <path d="M496 64H128V96c0 52.9-43 96-96 96H16c-8.8 0-16 7.2-16 16s7.2 16 16 16H32c26.5 0 48-21.5 48-48V48c0-26.5-21.5-48-48-48H16C7.2 0 0 7.2 0 16s7.2 16 16 16H496c26.5 0 48 21.5 48 48v80c0 26.5-21.5 48-48 48H480c-8.8 0-16 7.2-16 16s7.2 16 16 16h16c8.8 0 16-7.2 16-16V96c0-17.7-14.3-32-32-32zm-6.6 371.3c-6.6 6.6-15.5 10.6-25.4 10.6H448c-8.8 0-16 7.2-16 16s7.2 16 16 16h16c17.7 0 32 14.3 32 32v16c0 17.7-14.3 32-32 32H448c-26.5 0-48-21.5-48-48V448c0-17.7-14.3-32-32-32H416V384h16c26.5 0 48 21.5 48 48v16c0 17.7-14.3 32-32 32H416v48h16c8.8 0 16-7.2 16-16s-7.2-16-16-16H416c-17.7 0-32-14.3-32-32V368c0-17.7 14.3-32 32-32h16V304H416c-26.5 0-48-21.5-48-48v-16c0-17.7 14.3-32 32-32h16V176H416c-17.7 0-32-14.3-32-32V128c0-17.7 14.3-32 32-32h48v16c0 17.7 14.3 32 32 32h16v48h16c17.7 0 32 14.3 32 32v16c0 17.7-14.3 32-32 32h-16v64h16c17.7 0 32 14.3 32 32v16c0 17.7-14.3 32-32 32H416v16h16c8.8 0 16-7.2 16-16s-7.2-16-16-16H416v-64h16c8.8 0 16-7.2 16-16V304h16c8.8 0 16-7.2 16-16V272c0-8.8-7.2-16-16-16H448V240h16c8.8 0 16-7.2 16-16v-16c0-8.8-7.2-16-16-16H448V176h16c8.8 0 16-7.2 16-16v-16c0-8.8-7.2-16-16-16H448V96h16c8.8 0 16-7.2 16-16V64c0-8.8-7.2-16-16-16H448 416z"/>
    </symbol>

    <!-- 数据库相关 -->
    <symbol id="fa-database" viewBox="0 0 512 512">
        <path d="M256 64c57.8 0 111.7 18.9 156.3 50.3L432 128c-38.3-27.5-85.4-43.8-136-43.8C201.7 84.2 160 110.4 160 144V256h96V64zM96 256V144c0-36.1 41.7-59.8 96-59.8c50.6 0 97.7 16.3 136 43.8l19.7-13.4C367.7 82.9 314.2 64 256 64C147.2 64 64 147.2 64 256v160c0 17.7 14.3 32 32 32H416c17.7 0 32-14.3 32-32V256c0-108.8-87.2-197.2-192-201.8V256c0 36.1-41.7 59.8-96 59.8C50.6 314.8 3.3 298.5-32 256.2V256c0-17.7-14.3-32-32-32s-32 14.3-32 32v40c0 17.7 14.3 32 32 32H192v32H64c-17.7 0-32 14.3-32 32v40c0 17.7 14.3 32 32 32H192v32H64c-17.7 0-32 14.3-32 32v40c0 17.7 14.3 32 32 32H192v32H64c-17.7 0-32 14.3-32 32v40c0 17.7 14.3 32 32 32H416c17.7 0 32-14.3 32-32V448H256v32H416c17.7 0 32-14.3 32-32V448c0-17.7-14.3-32-32-32H256v-32H416c17.7 0 32-14.3 32-32V384c0-17.7-14.3-32-32-32H256v-32H416c17.7 0 32-14.3 32-32V320c0-17.7-14.3-32-32-32H256v-32z"/>
    </symbol>

    <symbol id="fa-server" viewBox="0 0 512 512">
        <path d="M496 352c0 17.7-14.3 32-32 32H448v64h16c17.7 0 32-14.3 32-32V384c0-17.7-14.3-32-32-32H448v-32h16c17.7 0 32-14.3 32-32V288c0-17.7-14.3-32-32-32H448v-32h16c17.7 0 32-14.3 32-32V192c0-17.7-14.3-32-32-32H448v-32h16c17.7 0 32-14.3 32-32V64H384v32c0 17.7-14.3 32-32 32H320V64H192v32c0 17.7-14.3 32-32 32H128V64H48c-8.8 0-16 7.2-16 16v352c0 8.8 7.2 16 16 16H464c8.8 0 16-7.2 16-16V384h16v64H448c-17.7 0-32 14.3-32 32v32h48V352zM320 256a32 32 0 1 1 0 64 32 32 0 1 1 0-64z"/>
    </symbol>

    <!-- 刷新/重载 -->
    <symbol id="fa-refresh" viewBox="0 0 512 512">
        <path d="M480 256c0 123.4-100.5 223.9-223.9 223.9c-46.5 0-90.2-14-126.4-37.9l-7.5 14.9c-28.7 14.6-61.3 22.8-95.7 22.8C11.9 478 0 466.1 0 452.1V380c0-11 9-20.1 20.1-20.1C133.1 359.9 240 256 368 256c46.9 0 90.5 14.2 126.9 38.3l-30.4-22.2c-21.4-15.7-46.8-24-74.5-24c-70.7 0-128 57.3-128 128s57.3 128 128 128c52.4 0 98.3-31.8 119.2-77.4c4.6-10.1 1.8-22.6-6.5-30.1l-20.7-18.6c-9.6-8.5-24.4-8.2-33.5 1.2s-8.2 24.4 1.2 33.5l20.7 18.6c9.6 8.5 21.4 13.2 33.5 13.2c18.1 0 35.5-8.9 45.7-24.5c8.5-13 10.5-29.1 5.4-44.1C484.4 298.5 480 277.5 480 256z"/>
    </symbol>

    <!-- 设置/齿轮 -->
    <symbol id="fa-gear" viewBox="0 0 512 512">
        <path d="M495.9 166.6c-3.9 3.9-3.9 10.2 0 14.1l25.9 25.9c14.5 14.5 14.5 38.1 0 52.6l-34.6 34.6c-14.5 14.5-38.1 14.5-52.6 0l-25.9-25.9c-3.9-3.9-10.2-3.9-14.1 0l-18 18c-48.5 48.5-107 74-171.6 74c-38.2 0-75.4-11.1-107.7-32l-18-18c-3.9-3.9-10.2-3.9-14.1 0l-25.9 25.9c-14.5 14.5-38.1 14.5-52.6 0L34.3 284.1c-14.5-14.5-14.5-38.1 0-52.6l25.9-25.9c3.9-3.9 3.9-10.2 0-14.1l-18-18c-47.2-47.2-73-109.3-73-175.4c0-38.2 11.1-75.4 32-107.7l18-18c3.9-3.9 3.9-10.2 0-14.1L25.1 18.1C10.5 3.6-3.1 3.6-17.8 18.1L-3.5 32.7C-18.1 47.2-18.1 70.8-3.5 85.3l25.9 25.9c3.9 3.9 10.2 3.9 14.1 0l18-18c32.3-20.9 69.5-32 107.7-32c66.1 0 128.2 26.7 175.4 73.4l18 18c3.9 3.9 10.2 3.9 14.1 0l25.9-25.9c14.5-14.5 38.1-14.5 52.6 0l34.6 34.6c14.5 14.5 14.5 38.1 0 52.6l-25.9 25.9zM256 336c0 8.8-7.2 16-16 16s-16-7.2-16-16s7.2-16 16-16s16 7.2 16 16z"/>
    </symbol>

    <!-- 加号 -->
    <symbol id="fa-plus" viewBox="0 0 448 512">
        <path d="M240 80c0-17.7 14.3-32 32-32h48c17.7 0 32 14.3 32 32V237.3l82.8-82.8c12.3-12.3 32.3-12.3 44.6 0l44.6 44.6c12.3 12.3 12.3 32.3 0 44.6L371.1 344.7l44.6 44.6c12.3 12.3 12.3 32.3 0 44.6l-44.6 44.6c-12.3 12.3-32.3 12.3-44.6 0L320 402.7 237.3 480H336c17.7 0 32 14.3 32 32s-14.3 32-32 32H112c-17.7 0-32-14.3-32-32s14.3-32 32-32H210.7L123.3 355.3c-12.3 12.3-32.3 12.3-44.6 0L34.1 310.6c-12.3-12.3-12.3-32.3 0-44.6L155.9 144.7 111.3 100l44.6-44.6c12.3-12.3 32.3-12.3 44.6 0l25.9 25.9V80z"/>
    </symbol>

    <!-- 关闭/删除 -->
    <symbol id="fa-times" viewBox="0 0 352 512">
        <path d="M342.6 150.6c12.5-12.5 12.5-32.8 0-45.3s-32.8-12.5-45.3 0L192 210.7 86.6 105.4c-12.5-12.5-32.8-12.5-45.3 0s-12.5 32.8 0 45.3L146.7 256 41.4 361.4c-12.5 12.5-12.5 32.8 0 45.3s32.8 12.5 45.3 0L192 301.3 297.4 406.6c12.5 12.5 32.8 12.5 45.3 0s12.5-32.8 0-45.3L237.3 256 342.6 150.6z"/>
    </symbol>

    <!-- 箭头相关 -->
    <symbol id="fa-arrow-left" viewBox="0 0 448 512">
        <path d="M447.1 256C447.1 273.7 433.7 288 416 288H109.3l105.4 105.4c12.5 12.5 12.5 32.75 0 45.25s-32.75 12.5-45.25 0L64 288.4C51.13 275.6 51.13 252.4 64 239.6l105.4-105.4c12.5-12.5 32.75-12.5 45.25 0s12.5 32.75 0 45.25L109.3 240H416C433.7 240 447.1 254.3 447.1 256z"/>
    </symbol>

    <symbol id="fa-arrow-right" viewBox="0 0 448 512">
        <path d="M438.6 278.6c12.5-12.5 12.5-32.8 0-45.3l-160-160c-12.5-12.5-32.8-12.5-45.3 0s-12.5 32.8 0 45.3L338.7 224H32c-17.7 0-32 14.3-32 32s14.3 32 32 32h306.7L223 393.7c-12.5 12.5-12.5 32.8 0 45.3s32.8 12.5 45.3 0l160-160z"/>
    </symbol>

    <!-- 保存 -->
    <symbol id="fa-save" viewBox="0 0 448 512">
        <path d="M432 48H208c-8.8 0-16 7.2-16 16V96H96c-8.8 0-16 7.2-16 16v336c0 8.8 7.2 16 16 16h304c8.8 0 16-7.2 16-16V160c0-8.8-7.2-16-16-16H384V64c0-8.8-7.2-16-16-16H240c-8.8 0-16 7.2-16 16V96H112V64c0-8.8-7.2-16-16-16H16C7.2 48 0 55.2 0 64v384c0 8.8 7.2 16 16 16h384c8.8 0 16-7.2 16-16V112c0-8.8-7.2-16-16-16zM190.5 109.3l-51.7 51.7C135.3 164.5 128 174.2 128 184c0 9.8 7.2 17.1 16 17.1s16-7.3 16-17.1c0-9.8-7.3-19.5-10.8-23.1l51.7-51.7c6.2-6.2 6.2-16.4 0-22.6s-16.4-6.2-22.6 0zM384 332.2c0 5.4-4.4 9.8-9.8 9.8s-9.8-4.4-9.8-9.8s4.4-9.8 9.8-9.8s9.8 4.4 9.8 9.8z"/>
    </symbol>

    <!-- 播放/开始 -->
    <symbol id="fa-play" viewBox="0 0 448 512">
        <path d="M424.4 214.7L72.4 6.6C43-8.3 0 6.1 0 47.9V464c0 37.5 40.7 60.7 72.4 41.3L352 297.4V464c0 25.5 22.1 45 48 45s48-19.5 48-45V297.4l172.4-172.4c31.8-31.2 31.6-84 .2-115.3z"/>
    </symbol>

    <!-- 信息 -->
    <symbol id="fa-info-circle" viewBox="0 0 512 512">
        <path d="M256 512c141.4 0 256-114.6 256-256S397.4 0 256 0S0 114.6 0 256s114.6 256 256 256zm-40-232c17.7 0 32-14.3 32-32s-14.3-32-32-32s-32 14.3-32 32s14.3 32 32 32zm32 128c-8.8 0-16 7.2-16 16v40c0 17.7 14.3 32 32 32s32-14.3 32-32V404c0-8.8-7.2-16-16-16s-16 7.2-16 16v40c0 35.3-28.7 64-64 64s-64-28.7-64-64V404c0-8.8-7.2-16-16-16z"/>
    </symbol>

    <!-- 警告 -->
    <symbol id="fa-exclamation-triangle" viewBox="0 0 512 512">
        <path d="M440.5 88.3l-166.4-298C268.8 77.3 256 87.5 256 100.9v29.8c0 10.8 5.6 20.9 15.2 27.4l166.4 139.1c8.3 6.9 13.2 17 13.2 27.1V416c0 15.9-11.1 29.6-27.1 33.5c-16.4 4-32.8-6.6-32.8-23.3V323.4c0-.2 0-.3 0-.5c-.1-10.2-6.5-19.5-16.1-23.7l-150.6-66c-5.1-2.2-8.4-7.1-8.4-12.5V174.7c0-7.8 5.1-14.8 12.8-17.5c7.7-2.7 16.2-.4 21.4 5.9l73.1 89.2c3.7 4.5 10.3 5.2 15.2 1.6L434.5 141c10.2-7.5 12.6-21.3 5.1-31.4s-21.2-12.5-31.2-5.4L266.7 171c-10.3-2.9-21.1 2.5-25.1 12.5l-73.1 130.6c-2.6 4.7-2.2 10.5 1.1 14.7l119.3 152.5c4.5 5.7 13.2 6.2 18.2 1.1l36.5-37.4c4.7-4.8 5-12.5 0.6-17.3s-12.5-5-17.3-.6L223 409.9c-3.4 3.4-3.4 9 0 12.4l36.5 37.4c9.7 9.9 25.5 10 35.4 .2s10-25.5 .2-35.4L236.7 342c-3.4-3.4-9-3.4-12.4 0l-29.4 30.1c-4.8 4.8-4.8 12.5 0 17.3s12.5 4.8 17.3 0l7.3-7.5V412c0 13.3 12.9 23.9 26.1 21.3c13.1-2.6 23.5-15.4 23.5-28.7V297.1c0-13.3-12.9-23.9-26.1-21.3s-23.5 15.4-23.5 28.7v35l-119.3-152c-6.8-8.7-7.1-20.6-.7-29.7l73.1-130.6c6.1-11 20.4-15.4 31.8-9.8l141.7 69.6c5.5 2.7 11.8 3.1 17.7 1s10.8-6.7 13.1-12.4l45.5-113.7c4.6-11.5-1.6-24.5-13.7-29.1s-24.5 1.6-29.1 13.7L291 120.9l-7.3-8.9c-6.1-7.5-16.2-10.7-25.7-8.2s-16.9 10.1-18.3 19.7L209.4 206c-.1.2-.2.4-.2.5c0 8.5 5.4 16.1 13.5 19l150.6 66c5.1 2.2 8.4 7.1 8.4 12.5V432c0 26.5-21.5 48-48 48H136c-26.5 0-48-21.5-48-48V298.2c0-13.3-12.9-23.9-26.1-21.3S34.1 289.9 34.1 303.2V432c0 44.2 35.8 80 80 80h224c44.2 0 80-35.8 80-80V298.2c0-10.8-5.6-20.9-15.2-27.4z"/>
    </symbol>

    <!-- 成功/勾选 -->
    <symbol id="fa-check" viewBox="0 0 448 512">
        <path d="M438.6 105.4c12.5 12.5 12.5 32.8 0 45.3l-182.6 182.6-78.5-78.5c-12.5-12.5-32.8-12.5-45.3 0s-12.5 32.8 0 45.3l96 96c12.5 12.5 32.8 12.5 45.3 0l192-192zM256 336c0 8.8-7.2 16-16 16s-16-7.2-16-16s7.2-16 16-16s16 7.2 16 16z"/>
    </symbol>

    <!-- 文件/文档 -->
    <symbol id="fa-file" viewBox="0 0 384 512">
        <path d="M224 136V0H24C10.7 0 0 10.7 0 24v464c0 13.3 10.7 24 24 24h336c13.3 0 24-10.7 24-24V160H256c-13.2 0-24-10.8-24-24zm193.2 152h-88.5l-12.7-38.2c-2.6-7.8-9.4-13.8-17.4-13.8H109.3c-8 0-14.8 6-17.4 13.8L77.3 288H48c-8.8 0-16 7.2-16 16v32c0 8.8 7.2 16 16 16h352c8.8 0 16-7.2 16-16v-32c0-8.8-7.2-16-16-16zM88 368c-13.3 0-24-10.7-24-24s10.7-24 24-24s24 10.7 24 24s-10.7 24-24 24z"/>
    </symbol>

    <!-- 文件夹 -->
    <symbol id="fa-folder" viewBox="0 0 576 512">
        <path d="M480 416v16c0 26.5-21.5 48-48 48H48c-26.5 0-48-21.5-48-48V192c0-26.5 21.5-48 48-48h16v48H54c-13.3 0-24 10.7-24 24v232c0 13.3 10.7 24 24 24h388.3l-13.3-64H152c-13.3 0-24 10.7-24 24v64h272.7l-13.3-64H304v48h16c26.5 0 48 21.5 48 48zM96 224c35.3 0 64-28.7 64-64s-28.7-64-64-64s-64 28.7-64 64s28.7 64 64 64zm128 64c0-35.3-28.7-64-64-64s-64 28.7-64 64s28.7 64 64 64s64-28.7 64-64z"/>
    </symbol>

    <!-- 列表 -->
    <symbol id="fa-list" viewBox="0 0 512 512">
        <path d="M80 96c0-17.7 14.3-32 32-32H480c17.7 0 32 14.3 32 32s-14.3 32-32 32H112c-17.7 0-32-14.3-32-32zm0 128c0-17.7 14.3-32 32-32H480c17.7 0 32 14.3 32 32s-14.3 32-32 32H112c-17.7 0-32-14.3-32-32zm0 128c0-17.7 14.3-32 32-32H480c17.7 0 32 14.3 32 32s-14.3 32-32 32H112c-17.7 0-32-14.3-32-32z"/>
    </symbol>

    <!-- 菜单 -->
    <symbol id="fa-bars" viewBox="0 0 448 512">
        <path d="M0 96C0 78.3 14.3 64 32 64H416c17.7 0 32 14.3 32 32s-14.3 32-32 32H32C14.3 128 0 113.7 0 96zM0 256c0-17.7 14.3-32 32-32H416c17.7 0 32 14.3 32 32s-14.3 32-32 32H32c-17.7 0-32-14.3-32-32zm32 128c0-17.7 14.3-32 32-32H416c17.7 0 32 14.3 32 32s-14.3 32-32 32H32c-17.7 0-32-14.3-32-32z"/>
    </symbol>

    <!-- 编辑/铅笔 -->
    <symbol id="fa-edit" viewBox="0 0 512 512">
        <path d="M410.3 231l11.3-11.3-33.9-33.9-62.1-62.1L301.7 123c9.4-9.4 24.6-9.4 33.9 0l22.6 22.6c9.4 9.4 9.4 24.6 0 33.9l-62.1 62.1L393.4 291c20.6 20.6 20.6 54.1 0 74.7l-11.3 11.3c-9.4 9.4-24.6 9.4-33.9 0L231 278.1 62.1 447.1c-37.6 37.6-98.3 37.6-135.9 0L7.4 528.9c-37.6-37.6-37.6-98.3 0-135.9l123-123 62.1 62.1 11.3 11.3c9.4 9.4 24.6 9.4 33.9 0l22.6-22.6c9.4-9.4 9.4-24.6 0-33.9l-62.1-62.1 33.9-33.9 62.1-62.1L378.9 37.1c20.6-20.6 54.1-20.6 74.7 0z"/>
    </symbol>

    <!-- 导出 -->
    <symbol id="fa-download" viewBox="0 0 512 512">
        <path d="M480 352h-133.5l-45.25 45.25C289.2 409.3 273.1 416 256 416s-33.16-6.656-45.25-18.75L165.5 352H48c-8.8 0-16 7.2-16 16v96c0 8.8 7.2 16 16 16h432c8.8 0 16-7.2 16-16v-96c0-8.8-7.2-16-16-16zM247.4 278.8c.6 .6 1.3 .9 2.1 .9h1.3c11 0 21.1-4.6 28.2-12.7l54.7-61.3c3.2-3.6 4.9-8.4 4.9-13.3c0-4.9-1.7-9.7-4.9-13.3l-54.7-61.3c-7.1-8.1-17.2-12.7-28.2-12.7H249c-.8 0-1.6 .3-2.1 .9c-.6 .6-.9 1.3-.9 2.1c0 .8 .3 1.6 .9 2.1c.6 .6 1.3 .9 2.1 .9h1.3c3.7 0 7.2 1.6 9.6 4.4l54.7 61.3c.6 .6 .9 1.3 .9 2.1s-.3 1.6-.9 2.1l-54.7 61.3c-2.4 2.8-5.9 4.4-9.6 4.4H249c-.8 0-1.6-.3-2.1-.9c-1.3-1.2-1.3-3.1 0-4.2zM374.1 97.8C372.9 86.62 363.3 78 352 78s-20.9 8.621-22.1 19.79L311.8 192H336c8.844 0 16 7.156 16 16s-7.156 16-16 16H311.8l18.1 74.21C332.1 309.4 341.7 318 352 318s20.9-8.621 22.1-19.79L392.2 224H368c-8.844 0-16-7.156-16-16s7.156-16 16-16h24.2l-18.1-74.21z"/>
    </symbol>

    <!-- 眼睛/查看 -->
    <symbol id="fa-eye" viewBox="0 0 576 512">
        <path d="M288 136c0-22.1 17.9-40 40-40s40 17.9 40 40v31.3l99.6-66.4C514.4 95.8 543.9 48 576 48c0 0 0 0 0 0c33.5 0 64.4 28.3 74 57.8c2.2 6.8 3.3 13.9 3.3 21.3c0 33.8-24.9 65.3-59.9 86.1l-6.9 4.1V352c0 22.1-17.9 40-40 40s-40-17.9-40-40V288zM63.1 64.8C53.5 35.3 22.6 8 0 8C0 0 0 0 0 0c33.5 0 64.4 28.3 74 57.8c2.2 6.8 3.3 13.9 3.3 21.3c0 33.8-24.9 65.3-59.9 86.1l-6.9 4.1V352c0 22.1-17.9 40-40 40S0 374.1 0 352V249.3l99.6-66.4C146.4 137.8 175.9 90 208 90c0 0 0 0 0 0c33.5 0 64.4 28.3 74 57.8c2.2 6.8 3.3 13.9 3.3 21.3c0 33.8-24.9 65.3-59.9 86.1l-6.9 4.1V352c0 22.1-17.9 40-40 40s-40-17.9-40-40V287.3L37.4 353.7C13.5 332.2-5.6 293.7 3.3 255.3c9.5-41.5 45.3-77.4 92.2-86.4l9-1.8V64.8zm17.8 382.7l-9-1.8V64.8l9-1.8c47-9 82.8-44.9 92.2-86.4c8.8-38.4-10.3-76.9-34.3-98.2l-6.9-4.1V64.8l9-1.8c47-9 82.8-44.9 92.2-86.4c8.8-38.4-10.3-76.9-34.3-98.2L248.6 1.7c-24-21.5-59.5-21.5-83.5 0l-6.9 4.1c-24 21.5-43.1 60-34.3 98.2l9 1.8V352l-9 1.8c-47 9-82.8 44.9-92.2 86.4c-8.8 38.4 10.3 76.9 34.3 98.2l6.9 4.1z"/>
    </symbol>

    <!-- 锁 -->
    <symbol id="fa-lock" viewBox="0 0 448 512">
        <path d="M224 64c0-35.3-28.7-64-64-64s-64 28.7-64 64v48H64c-35.3 0-64 28.7-64 64V448c0 35.3 28.7 64 64 64H384c35.3 0 64-28.7 64-64V224c0-35.3-28.7-64-64-64H288V64c0-35.3-28.7-64-64-64S160 28.7 160 64v48H224zM160 192c17.7 0 32-14.3 32-32V64c0-17.7-14.3-32-32-32s-32 14.3-32 32v96c0 17.7 14.3 32 32 32zm192 0c17.7 0 32-14.3 32-32V64c0-17.7-14.3-32-32-32s-32 14.3-32 32v96c0 17.7 14.3 32 32 32zM96 448c0 17.7 14.3 32 32 32H320c17.7 0 32-14.3 32-32s-14.3-32-32-32H128c-17.7 0-32 14.3-32 32z"/>
    </symbol>
</svg>